<svg version="1.1" id="Layer_1" xmlns="http://www.w3.org/2000/svg" x="0" y="0" viewBox="0 0 63 12.8" xml:space="preserve">
  <style>
    .st0{fill:#58595b}
  </style>
  <path class="st0" d="M.8 9.9s1.2 1.3 3.1 1.3c1.3 0 2.3-.8 2.3-2C6.2 6.3.4 7 .4 3.4.4 1.7 1.8.2 4 .2c2 0 3.1 1.1 3.1 1.1l-.5 1s-1-1-2.5-1-2.4 1-2.5 2c0 2.7 5.8 2 5.8 5.8 0 1.7-1.3 3.2-3.5 3.2-2.4 0-3.7-1.5-3.7-1.5l.6-.9zM19.1.3c3.3 0 5.9 2.6 5.9 6s-2.6 6.1-5.9 6.1-5.9-2.7-5.9-6.1 2.6-6 5.9-6zm0 11c2.6 0 4.7-2.2 4.7-5s-2.1-4.9-4.7-4.9-4.7 2.1-4.7 4.9c-.1 2.7 2 5 4.7 5zM31.7.5h1.1v10.6h5.3v1h-6.5L31.7.5zM44.4.6h1.1v11.6h-1.1V.6zM53 .6h3.7c3.5 0 5.8 2.2 5.8 5.8 0 3.7-2.4 5.8-5.9 5.8h-3.7L53 .6zm3.6 10.6c2.8 0 4.8-1.6 4.8-4.8 0-3.1-1.9-4.8-4.7-4.8h-2.5v9.6h2.4z"/>
</svg>
